<mxfile host="app.diagrams.net" modified="2023-09-06T05:52:52.912Z" agent="Mozilla/5.0 (Windows NT 10.0; Win64; x64) AppleWebKit/537.36 (KHTML, like Gecko) Chrome/114.0.0.0 YaBrowser/23.7.4.971 Yowser/2.5 Safari/537.36" version="21.7.2" etag="tXvUnDFdNVzUwY78JkdW" type="github">
  <diagram name="Страница — 1" id="XxN6ksuybt-QkJ760VEk">
    <mxGraphModel>
      <root>
        <mxCell id="0" />
        <mxCell id="1" parent="0" />
      </root>
    </mxGraphModel>
  </diagram>
</mxfile>
